{
    "asset" : {
        "generator" : "Khronos glTF Blender I/O v1.6.16",
        "version" : "2.0"
    },
    "scene" : 0,
    "scenes" : [
        {
            "name" : "Scene",
            "nodes" : [
                8
            ]
        }
    ],
    "nodes" : [
        {
            "mesh" : 0,
            "name" : "Cube_ecran_0"
        },
        {
            "mesh" : 1,
            "name" : "Cube_personnage_0"
        },
        {
            "mesh" : 2,
            "name" : "Cube_pourtour_0"
        },
        {
            "children" : [
                0,
                1,
                2
            ],
            "name" : "Cube",
            "rotation" : [
                -0.7071068286895752,
                0,
                0,
                0.7071067094802856
            ],
            "scale" : [
                815.5671997070312,
                815.5671997070312,
                815.5671997070312
            ]
        },
        {
            "mesh" : 3,
            "name" : "Cube.002_Material.001_0"
        },
        {
            "children" : [
                4
            ],
            "name" : "Cube.002",
            "rotation" : [
                -0.7071068286895752,
                0,
                0,
                0.7071067094802856
            ],
            "scale" : [
                815.5671997070312,
                815.5671997070312,
                815.5671997070312
            ],
            "translation" : [
                0,
                52.86556625366211,
                0
            ]
        },
        {
            "children" : [
                3,
                5
            ],
            "name" : "RootNode"
        },
        {
            "children" : [
                6
            ],
            "name" : "personnage among us MIKE.fbx",
            "rotation" : [
                0.7071068286895752,
                0,
                0,
                0.7071068286895752
            ],
            "scale" : [
                0.009999999776482582,
                0.009999999776482582,
                0.009999999776482582
            ]
        },
        {
            "children" : [
                7
            ],
            "name" : "Sketchfab_model",
            "rotation" : [
                -0.7071068286895752,
                0,
                0,
                0.7071068286895752
            ]
        }
    ],
    "materials" : [
        {
            "doubleSided" : true,
            "name" : "ecran",
            "pbrMetallicRoughness" : {
                "baseColorFactor" : [
                    0.08545129746198654,
                    0.43825000524520874,
                    0.800000011920929,
                    1
                ],
                "metallicFactor" : 0,
                "roughnessFactor" : 0.912935733795166
            }
        },
        {
            "doubleSided" : true,
            "name" : "personnage",
            "pbrMetallicRoughness" : {
                "baseColorFactor" : [
                    0.08650046586990356,
                    0.03560132905840874,
                    0.20507879555225372,
                    1
                ],
                "metallicFactor" : 0,
                "roughnessFactor" : 0.4000000059604645
            }
        },
        {
            "doubleSided" : true,
            "name" : "pourtour",
            "pbrMetallicRoughness" : {
                "baseColorFactor" : [
                    0.003512890078127384,
                    0.0019632698968052864,
                    0.00042562599992379546,
                    1
                ],
                "metallicFactor" : 0,
                "roughnessFactor" : 0.9995121359825134
            }
        },
        {
            "doubleSided" : true,
            "name" : "Material.001",
            "pbrMetallicRoughness" : {
                "baseColorFactor" : [
                    0.08650046586990356,
                    0.03560132905840874,
                    0.20507879555225372,
                    1
                ],
                "metallicFactor" : 0,
                "roughnessFactor" : 0.4000000059604645
            }
        }
    ],
    "meshes" : [
        {
            "name" : "Cube_ecran_0",
            "primitives" : [
                {
                    "attributes" : {
                        "POSITION" : 0,
                        "NORMAL" : 1,
                        "TEXCOORD_0" : 2
                    },
                    "indices" : 3,
                    "material" : 0
                }
            ]
        },
        {
            "name" : "Cube_personnage_0",
            "primitives" : [
                {
                    "attributes" : {
                        "POSITION" : 4,
                        "NORMAL" : 5,
                        "TEXCOORD_0" : 6
                    },
                    "indices" : 7,
                    "material" : 1
                }
            ]
        },
        {
            "name" : "Cube_pourtour_0",
            "primitives" : [
                {
                    "attributes" : {
                        "POSITION" : 8,
                        "NORMAL" : 9,
                        "TEXCOORD_0" : 10
                    },
                    "indices" : 11,
                    "material" : 2
                }
            ]
        },
        {
            "name" : "Cube.002_Material.001_0",
            "primitives" : [
                {
                    "attributes" : {
                        "POSITION" : 12,
                        "NORMAL" : 13,
                        "TEXCOORD_0" : 14
                    },
                    "indices" : 15,
                    "material" : 3
                }
            ]
        }
    ],
    "accessors" : [
        {
            "bufferView" : 0,
            "componentType" : 5126,
            "count" : 893,
            "max" : [
                1.5880478620529175,
                -1.7457523345947266,
                7.684825897216797
            ],
            "min" : [
                -1.5881166458129883,
                -2.9569382667541504,
                5.499292373657227
            ],
            "type" : "VEC3"
        },
        {
            "bufferView" : 1,
            "componentType" : 5126,
            "count" : 893,
            "type" : "VEC3"
        },
        {
            "bufferView" : 2,
            "componentType" : 5126,
            "count" : 893,
            "type" : "VEC2"
        },
        {
            "bufferView" : 3,
            "componentType" : 5123,
            "count" : 3888,
            "type" : "SCALAR"
        },
        {
            "bufferView" : 4,
            "componentType" : 5126,
            "count" : 7132,
            "max" : [
                2.477586030960083,
                2.3443214893341064,
                9.331607818603516
            ],
            "min" : [
                -2.477585792541504,
                -2.311086893081665,
                0.010151864029467106
            ],
            "type" : "VEC3"
        },
        {
            "bufferView" : 5,
            "componentType" : 5126,
            "count" : 7132,
            "type" : "VEC3"
        },
        {
            "bufferView" : 6,
            "componentType" : 5126,
            "count" : 7132,
            "type" : "VEC2"
        },
        {
            "bufferView" : 7,
            "componentType" : 5123,
            "count" : 35712,
            "type" : "SCALAR"
        },
        {
            "bufferView" : 8,
            "componentType" : 5126,
            "count" : 1422,
            "max" : [
                1.793707013130188,
                -1.6557427644729614,
                7.936142444610596
            ],
            "min" : [
                -1.7930212020874023,
                -2.39636492729187,
                5.29910135269165
            ],
            "type" : "VEC3"
        },
        {
            "bufferView" : 9,
            "componentType" : 5126,
            "count" : 1422,
            "type" : "VEC3"
        },
        {
            "bufferView" : 10,
            "componentType" : 5126,
            "count" : 1422,
            "type" : "VEC2"
        },
        {
            "bufferView" : 11,
            "componentType" : 5123,
            "count" : 6912,
            "type" : "SCALAR"
        },
        {
            "bufferView" : 12,
            "componentType" : 5126,
            "count" : 1717,
            "max" : [
                2.3490216732025146,
                3.6351447105407715,
                7.417989253997803
            ],
            "min" : [
                -2.3490216732025146,
                1.3697551488876343,
                2.903893232345581
            ],
            "type" : "VEC3"
        },
        {
            "bufferView" : 13,
            "componentType" : 5126,
            "count" : 1717,
            "type" : "VEC3"
        },
        {
            "bufferView" : 14,
            "componentType" : 5126,
            "count" : 1717,
            "type" : "VEC2"
        },
        {
            "bufferView" : 15,
            "componentType" : 5123,
            "count" : 8448,
            "type" : "SCALAR"
        }
    ],
    "bufferViews" : [
        {
            "buffer" : 0,
            "byteLength" : 10716,
            "byteOffset" : 0
        },
        {
            "buffer" : 0,
            "byteLength" : 10716,
            "byteOffset" : 10716
        },
        {
            "buffer" : 0,
            "byteLength" : 7144,
            "byteOffset" : 21432
        },
        {
            "buffer" : 0,
            "byteLength" : 7776,
            "byteOffset" : 28576
        },
        {
            "buffer" : 0,
            "byteLength" : 85584,
            "byteOffset" : 36352
        },
        {
            "buffer" : 0,
            "byteLength" : 85584,
            "byteOffset" : 121936
        },
        {
            "buffer" : 0,
            "byteLength" : 57056,
            "byteOffset" : 207520
        },
        {
            "buffer" : 0,
            "byteLength" : 71424,
            "byteOffset" : 264576
        },
        {
            "buffer" : 0,
            "byteLength" : 17064,
            "byteOffset" : 336000
        },
        {
            "buffer" : 0,
            "byteLength" : 17064,
            "byteOffset" : 353064
        },
        {
            "buffer" : 0,
            "byteLength" : 11376,
            "byteOffset" : 370128
        },
        {
            "buffer" : 0,
            "byteLength" : 13824,
            "byteOffset" : 381504
        },
        {
            "buffer" : 0,
            "byteLength" : 20604,
            "byteOffset" : 395328
        },
        {
            "buffer" : 0,
            "byteLength" : 20604,
            "byteOffset" : 415932
        },
        {
            "buffer" : 0,
            "byteLength" : 13736,
            "byteOffset" : 436536
        },
        {
            "buffer" : 0,
            "byteLength" : 16896,
            "byteOffset" : 450272
        }
    ],
    "buffers" : [
        {
            "byteLength" : 467168,
            "uri" : "data:application/octet-stream;base64,"
        }
    ]
}
