{
    "asset" : {
        "generator" : "Khronos glTF Blender I/O v1.6.16",
        "version" : "2.0"
    },
    "scene" : 0,
    "scenes" : [
        {
            "name" : "Scene",
            "nodes" : [
                5
            ]
        }
    ],
    "nodes" : [
        {
            "mesh" : 0,
            "name" : "Torus_001__0"
        },
        {
            "children" : [
                0
            ],
            "name" : "Torus_001",
            "rotation" : [
                -0.7071068286895752,
                0,
                0,
                0.7071067094802856
            ]
        },
        {
            "children" : [
                1
            ],
            "name" : "RootNode"
        },
        {
            "children" : [
                2
            ],
            "name" : "donut1.fbx",
            "rotation" : [
                0.7071068286895752,
                0,
                0,
                0.7071068286895752
            ]
        },
        {
            "children" : [
                3
            ],
            "name" : "RootNode (model correction matrix)",
            "rotation" : [
                0.05524807050824165,
                -0.05443943664431572,
                0.0030167759396135807,
                0.9969829320907593
            ],
            "translation" : [
                0.0217131394892931,
                0.022183816879987717,
                0.002673522802069783
            ]
        },
        {
            "children" : [
                4
            ],
            "name" : "RootNode (gltf orientation matrix)",
            "rotation" : [
                -0.7071068286895752,
                0,
                0,
                0.7071068286895752
            ]
        }
    ],
    "materials" : [
        {
            "doubleSided" : true,
            "name" : "Torus_001__0.002",
            "pbrMetallicRoughness" : {
                "baseColorFactor" : [
                    0.4926083981990814,
                    0.2443838268518448,
                    0.8000000715255737,
                    1
                ],
                "metallicFactor" : 0,
                "roughnessFactor" : 0.4000000059604645
            }
        }
    ],
    "meshes" : [
        {
            "name" : "Torus_001__0.002",
            "primitives" : [
                {
                    "attributes" : {
                        "POSITION" : 0,
                        "NORMAL" : 1,
                        "TEXCOORD_0" : 2,
                        "TEXCOORD_1" : 3,
                        "TEXCOORD_2" : 4,
                        "TEXCOORD_3" : 5,
                        "TEXCOORD_4" : 6,
                        "TEXCOORD_5" : 7,
                        "TEXCOORD_6" : 8,
                        "TEXCOORD_7" : 9
                    },
                    "indices" : 10,
                    "material" : 0
                }
            ]
        }
    ],
    "accessors" : [
        {
            "bufferView" : 0,
            "componentType" : 5126,
            "count" : 476,
            "max" : [
                0.6397470235824585,
                0.6398820877075195,
                0.47053301334381104
            ],
            "min" : [
                -0.6415359973907471,
                -0.6427860260009766,
                -0.06882301717996597
            ],
            "type" : "VEC3"
        },
        {
            "bufferView" : 1,
            "componentType" : 5126,
            "count" : 476,
            "type" : "VEC3"
        },
        {
            "bufferView" : 2,
            "componentType" : 5126,
            "count" : 476,
            "type" : "VEC2"
        },
        {
            "bufferView" : 3,
            "componentType" : 5126,
            "count" : 476,
            "type" : "VEC2"
        },
        {
            "bufferView" : 4,
            "componentType" : 5126,
            "count" : 476,
            "type" : "VEC2"
        },
        {
            "bufferView" : 5,
            "componentType" : 5126,
            "count" : 476,
            "type" : "VEC2"
        },
        {
            "bufferView" : 6,
            "componentType" : 5126,
            "count" : 476,
            "type" : "VEC2"
        },
        {
            "bufferView" : 7,
            "componentType" : 5126,
            "count" : 476,
            "type" : "VEC2"
        },
        {
            "bufferView" : 8,
            "componentType" : 5126,
            "count" : 476,
            "type" : "VEC2"
        },
        {
            "bufferView" : 9,
            "componentType" : 5126,
            "count" : 476,
            "type" : "VEC2"
        },
        {
            "bufferView" : 10,
            "componentType" : 5123,
            "count" : 2100,
            "type" : "SCALAR"
        }
    ],
    "bufferViews" : [
        {
            "buffer" : 0,
            "byteLength" : 5712,
            "byteOffset" : 0
        },
        {
            "buffer" : 0,
            "byteLength" : 5712,
            "byteOffset" : 5712
        },
        {
            "buffer" : 0,
            "byteLength" : 3808,
            "byteOffset" : 11424
        },
        {
            "buffer" : 0,
            "byteLength" : 3808,
            "byteOffset" : 15232
        },
        {
            "buffer" : 0,
            "byteLength" : 3808,
            "byteOffset" : 19040
        },
        {
            "buffer" : 0,
            "byteLength" : 3808,
            "byteOffset" : 22848
        },
        {
            "buffer" : 0,
            "byteLength" : 3808,
            "byteOffset" : 26656
        },
        {
            "buffer" : 0,
            "byteLength" : 3808,
            "byteOffset" : 30464
        },
        {
            "buffer" : 0,
            "byteLength" : 3808,
            "byteOffset" : 34272
        },
        {
            "buffer" : 0,
            "byteLength" : 3808,
            "byteOffset" : 38080
        },
        {
            "buffer" : 0,
            "byteLength" : 4200,
            "byteOffset" : 41888
        }
    ],
    "buffers" : [
        {
            "byteLength" : 46088,
            "uri" : "data:application/octet-stream;base64,"
        }
    ]
}
