{
    "asset" : {
        "generator" : "Khronos glTF Blender I/O v1.6.16",
        "version" : "2.0"
    },
    "scene" : 0,
    "scenes" : [
        {
            "name" : "Scene",
            "nodes" : [
                15
            ]
        }
    ],
    "nodes" : [
        {
            "mesh" : 0,
            "name" : "BREAD_Mat_0"
        },
        {
            "children" : [
                0
            ],
            "name" : "BREAD",
            "translation" : [
                4.7423930168151855,
                -8.311079025268555,
                1.4011625051498413
            ]
        },
        {
            "mesh" : 1,
            "name" : "CHEESE_Mat.3_0"
        },
        {
            "children" : [
                2
            ],
            "name" : "CHEESE",
            "translation" : [
                4.760128974914551,
                16.960386276245117,
                36.15693664550781
            ]
        },
        {
            "mesh" : 2,
            "name" : "CHEESE_2_Mat.1_0"
        },
        {
            "children" : [
                4
            ],
            "name" : "CHEESE_2",
            "translation" : [
                4.540984630584717,
                -12.228854179382324,
                -11.565404891967773
            ]
        },
        {
            "mesh" : 3,
            "name" : "PEPPERONI_Mat.2_0"
        },
        {
            "children" : [
                6
            ],
            "name" : "PEPPERONI",
            "translation" : [
                -18.11305046081543,
                13.958353996276855,
                11.387389183044434
            ]
        },
        {
            "mesh" : 4,
            "name" : "PEPPERONI_2_Mat.2_0"
        },
        {
            "children" : [
                8
            ],
            "name" : "PEPPERONI_2",
            "translation" : [
                18.11305046081543,
                3.4884047508239746,
                -11.64269733428955
            ]
        },
        {
            "mesh" : 5,
            "name" : "PEPPERONI_3_Mat.2_0"
        },
        {
            "children" : [
                10
            ],
            "name" : "PEPPERONI_3",
            "translation" : [
                -3.978456974029541,
                -16.960386276245117,
                -36.15693664550781
            ]
        },
        {
            "children" : [
                1,
                3,
                5,
                7,
                9,
                11
            ],
            "name" : "RootNode.001"
        },
        {
            "children" : [
                12
            ],
            "name" : "f9ab19da34b44b20a5f4d4f0c10ce874.fbx",
            "rotation" : [
                0.7071068286895752,
                0,
                0,
                0.7071068286895752
            ]
        },
        {
            "children" : [
                13
            ],
            "name" : "RootNode (model correction matrix).001"
        },
        {
            "children" : [
                14
            ],
            "name" : "RootNode (gltf orientation matrix).001",
            "rotation" : [
                -0.7071068286895752,
                0,
                0,
                0.7071068286895752
            ],
            "scale" : [
                0.009999999776482582,
                0.009999999776482582,
                0.009999999776482582
            ]
        }
    ],
    "materials" : [
        {
            "doubleSided" : true,
            "name" : "material",
            "pbrMetallicRoughness" : {
                "baseColorFactor" : [
                    0.8000000715255737,
                    0.30016401410102844,
                    0,
                    1
                ],
                "metallicFactor" : 0,
                "roughnessFactor" : 0.4000000059604645
            }
        },
        {
            "doubleSided" : true,
            "name" : "Mat.3",
            "pbrMetallicRoughness" : {
                "baseColorFactor" : [
                    0.6899043321609497,
                    0.7037489414215088,
                    0.0033629138488322496,
                    1
                ],
                "metallicFactor" : 0,
                "roughnessFactor" : 0.4000000059604645
            }
        },
        {
            "doubleSided" : true,
            "name" : "Mat.1",
            "pbrMetallicRoughness" : {
                "baseColorFactor" : [
                    0.8000000715255737,
                    0.7723299860954285,
                    0.021534668281674385,
                    1
                ],
                "metallicFactor" : 0,
                "roughnessFactor" : 0.4000000059604645
            }
        },
        {
            "doubleSided" : true,
            "name" : "Mat.2",
            "pbrMetallicRoughness" : {
                "baseColorFactor" : [
                    0.6146152019500732,
                    0,
                    0.00300877564586699,
                    1
                ],
                "metallicFactor" : 0,
                "roughnessFactor" : 0.4000000059604645
            }
        }
    ],
    "meshes" : [
        {
            "name" : "BREAD_Mat_0",
            "primitives" : [
                {
                    "attributes" : {
                        "POSITION" : 0,
                        "NORMAL" : 1,
                        "TEXCOORD_0" : 2
                    },
                    "indices" : 3,
                    "material" : 0
                }
            ]
        },
        {
            "name" : "CHEESE_Mat.3_0",
            "primitives" : [
                {
                    "attributes" : {
                        "POSITION" : 4,
                        "NORMAL" : 5,
                        "TEXCOORD_0" : 6
                    },
                    "indices" : 7,
                    "material" : 1
                }
            ]
        },
        {
            "name" : "CHEESE_2_Mat.1_0",
            "primitives" : [
                {
                    "attributes" : {
                        "POSITION" : 8,
                        "NORMAL" : 9,
                        "TEXCOORD_0" : 10
                    },
                    "indices" : 11,
                    "material" : 2
                }
            ]
        },
        {
            "name" : "PEPPERONI_Mat.2_0",
            "primitives" : [
                {
                    "attributes" : {
                        "POSITION" : 12,
                        "NORMAL" : 13
                    },
                    "indices" : 14,
                    "material" : 3
                }
            ]
        },
        {
            "name" : "PEPPERONI_2_Mat.2_0",
            "primitives" : [
                {
                    "attributes" : {
                        "POSITION" : 15,
                        "NORMAL" : 16
                    },
                    "indices" : 17,
                    "material" : 3
                }
            ]
        },
        {
            "name" : "PEPPERONI_3_Mat.2_0",
            "primitives" : [
                {
                    "attributes" : {
                        "POSITION" : 18,
                        "NORMAL" : 19
                    },
                    "indices" : 20,
                    "material" : 3
                }
            ]
        }
    ],
    "accessors" : [
        {
            "bufferView" : 0,
            "componentType" : 5126,
            "count" : 4789,
            "max" : [
                52.78932189941406,
                37.029571533203125,
                50.08871841430664
            ],
            "min" : [
                -52.78932189941406,
                -37.029571533203125,
                -50.08871841430664
            ],
            "type" : "VEC3"
        },
        {
            "bufferView" : 1,
            "componentType" : 5126,
            "count" : 4789,
            "type" : "VEC3"
        },
        {
            "bufferView" : 2,
            "componentType" : 5126,
            "count" : 4789,
            "type" : "VEC2"
        },
        {
            "bufferView" : 3,
            "componentType" : 5123,
            "count" : 28188,
            "type" : "SCALAR"
        },
        {
            "bufferView" : 4,
            "componentType" : 5126,
            "count" : 3131,
            "max" : [
                49.70008850097656,
                7.115344047546387,
                5.273878574371338
            ],
            "min" : [
                -49.58909606933594,
                -7.02995491027832,
                -5.349315643310547
            ],
            "type" : "VEC3"
        },
        {
            "bufferView" : 5,
            "componentType" : 5126,
            "count" : 3131,
            "type" : "VEC3"
        },
        {
            "bufferView" : 6,
            "componentType" : 5126,
            "count" : 3131,
            "type" : "VEC2"
        },
        {
            "bufferView" : 7,
            "componentType" : 5123,
            "count" : 18078,
            "type" : "SCALAR"
        },
        {
            "bufferView" : 8,
            "componentType" : 5126,
            "count" : 14643,
            "max" : [
                43.904449462890625,
                32.46186828613281,
                43.34962463378906
            ],
            "min" : [
                -43.23212814331055,
                -32.3974494934082,
                -43.26153564453125
            ],
            "type" : "VEC3"
        },
        {
            "bufferView" : 9,
            "componentType" : 5126,
            "count" : 14643,
            "type" : "VEC3"
        },
        {
            "bufferView" : 10,
            "componentType" : 5126,
            "count" : 14643,
            "type" : "VEC2"
        },
        {
            "bufferView" : 11,
            "componentType" : 5123,
            "count" : 87264,
            "type" : "SCALAR"
        },
        {
            "bufferView" : 12,
            "componentType" : 5126,
            "count" : 2767,
            "max" : [
                15.299776077270508,
                6.092045307159424,
                15.43274974822998
            ],
            "min" : [
                -15.300152778625488,
                -6.086302757263184,
                -15.437588691711426
            ],
            "type" : "VEC3"
        },
        {
            "bufferView" : 13,
            "componentType" : 5126,
            "count" : 2767,
            "type" : "VEC3"
        },
        {
            "bufferView" : 14,
            "componentType" : 5123,
            "count" : 15966,
            "type" : "SCALAR"
        },
        {
            "bufferView" : 15,
            "componentType" : 5126,
            "count" : 2623,
            "max" : [
                14.467155456542969,
                7.943911075592041,
                12.7296142578125
            ],
            "min" : [
                -14.457723617553711,
                -7.939702033996582,
                -12.72713565826416
            ],
            "type" : "VEC3"
        },
        {
            "bufferView" : 16,
            "componentType" : 5126,
            "count" : 2623,
            "type" : "VEC3"
        },
        {
            "bufferView" : 17,
            "componentType" : 5123,
            "count" : 15318,
            "type" : "SCALAR"
        },
        {
            "bufferView" : 18,
            "componentType" : 5126,
            "count" : 2530,
            "max" : [
                10.31850814819336,
                7.35868501663208,
                7.164156436920166
            ],
            "min" : [
                -10.329811096191406,
                -7.397584438323975,
                -7.1694016456604
            ],
            "type" : "VEC3"
        },
        {
            "bufferView" : 19,
            "componentType" : 5126,
            "count" : 2530,
            "type" : "VEC3"
        },
        {
            "bufferView" : 20,
            "componentType" : 5123,
            "count" : 14742,
            "type" : "SCALAR"
        }
    ],
    "bufferViews" : [
        {
            "buffer" : 0,
            "byteLength" : 57468,
            "byteOffset" : 0
        },
        {
            "buffer" : 0,
            "byteLength" : 57468,
            "byteOffset" : 57468
        },
        {
            "buffer" : 0,
            "byteLength" : 38312,
            "byteOffset" : 114936
        },
        {
            "buffer" : 0,
            "byteLength" : 56376,
            "byteOffset" : 153248
        },
        {
            "buffer" : 0,
            "byteLength" : 37572,
            "byteOffset" : 209624
        },
        {
            "buffer" : 0,
            "byteLength" : 37572,
            "byteOffset" : 247196
        },
        {
            "buffer" : 0,
            "byteLength" : 25048,
            "byteOffset" : 284768
        },
        {
            "buffer" : 0,
            "byteLength" : 36156,
            "byteOffset" : 309816
        },
        {
            "buffer" : 0,
            "byteLength" : 175716,
            "byteOffset" : 345972
        },
        {
            "buffer" : 0,
            "byteLength" : 175716,
            "byteOffset" : 521688
        },
        {
            "buffer" : 0,
            "byteLength" : 117144,
            "byteOffset" : 697404
        },
        {
            "buffer" : 0,
            "byteLength" : 174528,
            "byteOffset" : 814548
        },
        {
            "buffer" : 0,
            "byteLength" : 33204,
            "byteOffset" : 989076
        },
        {
            "buffer" : 0,
            "byteLength" : 33204,
            "byteOffset" : 1022280
        },
        {
            "buffer" : 0,
            "byteLength" : 31932,
            "byteOffset" : 1055484
        },
        {
            "buffer" : 0,
            "byteLength" : 31476,
            "byteOffset" : 1087416
        },
        {
            "buffer" : 0,
            "byteLength" : 31476,
            "byteOffset" : 1118892
        },
        {
            "buffer" : 0,
            "byteLength" : 30636,
            "byteOffset" : 1150368
        },
        {
            "buffer" : 0,
            "byteLength" : 30360,
            "byteOffset" : 1181004
        },
        {
            "buffer" : 0,
            "byteLength" : 30360,
            "byteOffset" : 1211364
        },
        {
            "buffer" : 0,
            "byteLength" : 29484,
            "byteOffset" : 1241724
        }
    ],
    "buffers" : [
        {
            "byteLength" : 1271208,
            "uri" : "data:application/octet-stream;base64,"
        }
    ]
}
